{
	"asset":{
		"generator":"Khronos glTF Blender I/O v3.6.27",
		"version":"2.0"
	},
	"extensionsUsed":[
		"KHR_texture_transform"
	],
	"extensionsRequired":[
		"KHR_texture_transform"
	],
	"scene":0,
	"scenes":[
		{
			"name":"Scene",
			"nodes":[
				0,
				1,
				2,
				3,
				4
			]
		}
	],
	"nodes":[
		{
			"mesh":0,
			"name":"1. Head"
		},
		{
			"mesh":1,
			"name":"2. Eyeballs"
		},
		{
			"mesh":2,
			"name":"3. EyelindUp"
		},
		{
			"mesh":3,
			"name":"4. EyelindsDown"
		},
		{
			"mesh":4,
			"name":"5. Mouth"
		}
	],
	"materials":[
		{
			"doubleSided":true,
			"name":"1. Head",
			"normalTexture":{
				"index":0
			},
			"pbrMetallicRoughness":{
				"baseColorTexture":{
					"index":1
				},
				"metallicFactor":0,
				"metallicRoughnessTexture":{
					"index":2
				}
			}
		},
		{
			"doubleSided":true,
			"name":"4. Eyeballs",
			"normalTexture":{
				"index":3
			},
			"pbrMetallicRoughness":{
				"baseColorFactor":[
					0.5122849941253662,
					0.5957157015800476,
					0.5865517258644104,
					1
				],
				"metallicFactor":0,
				"metallicRoughnessTexture":{
					"index":4
				}
			}
		},
		{
			"doubleSided":true,
			"name":"5. Pupil",
			"normalTexture":{
				"index":5
			},
			"pbrMetallicRoughness":{
				"baseColorFactor":[
					0,
					0,
					0,
					1
				],
				"metallicFactor":0,
				"metallicRoughnessTexture":{
					"index":6
				}
			}
		},
		{
			"doubleSided":true,
			"name":"2. Eyelind",
			"normalTexture":{
				"index":7
			},
			"pbrMetallicRoughness":{
				"baseColorTexture":{
					"index":8
				},
				"metallicFactor":0,
				"metallicRoughnessTexture":{
					"index":9
				}
			}
		},
		{
			"doubleSided":true,
			"name":"3. Mouth",
			"normalTexture":{
				"extensions":{
					"KHR_texture_transform":{
						"offset":[
							0,
							0.19999998807907104
						],
						"scale":[
							0.800000011920929,
							0.800000011920929
						]
					}
				},
				"index":10
			},
			"pbrMetallicRoughness":{
				"baseColorTexture":{
					"extensions":{
						"KHR_texture_transform":{
							"offset":[
								0,
								0.19999998807907104
							],
							"scale":[
								0.800000011920929,
								0.800000011920929
							]
						}
					},
					"index":11
				},
				"metallicFactor":0,
				"metallicRoughnessTexture":{
					"extensions":{
						"KHR_texture_transform":{
							"offset":[
								0,
								0.19999998807907104
							],
							"scale":[
								0.800000011920929,
								0.800000011920929
							]
						}
					},
					"index":12
				}
			}
		}
	],
	"meshes":[
		{
			"name":"Roundcube",
			"primitives":[
				{
					"attributes":{
						"POSITION":0,
						"NORMAL":1,
						"TEXCOORD_0":2
					},
					"indices":3,
					"material":0
				}
			]
		},
		{
			"name":"Sphere.001",
			"primitives":[
				{
					"attributes":{
						"POSITION":4,
						"NORMAL":5,
						"TEXCOORD_0":6
					},
					"indices":7,
					"material":1
				},
				{
					"attributes":{
						"POSITION":8,
						"NORMAL":9,
						"TEXCOORD_0":10
					},
					"indices":11,
					"material":2
				}
			]
		},
		{
			"name":"Roundcube.001",
			"primitives":[
				{
					"attributes":{
						"POSITION":12,
						"NORMAL":13,
						"TEXCOORD_0":14
					},
					"indices":15,
					"material":3
				}
			]
		},
		{
			"name":"Roundcube.002",
			"primitives":[
				{
					"attributes":{
						"POSITION":16,
						"NORMAL":17,
						"TEXCOORD_0":18
					},
					"indices":15,
					"material":3
				}
			]
		},
		{
			"name":"BezierCircle.002",
			"primitives":[
				{
					"attributes":{
						"POSITION":19,
						"NORMAL":20,
						"TEXCOORD_0":21
					},
					"indices":22,
					"material":4
				}
			]
		}
	],
	"textures":[
		{
			"sampler":0,
			"source":0
		},
		{
			"sampler":0,
			"source":0
		},
		{
			"sampler":0,
			"source":1
		},
		{
			"sampler":0,
			"source":0
		},
		{
			"sampler":0,
			"source":1
		},
		{
			"sampler":0,
			"source":0
		},
		{
			"sampler":0,
			"source":1
		},
		{
			"sampler":0,
			"source":0
		},
		{
			"sampler":0,
			"source":0
		},
		{
			"sampler":0,
			"source":1
		},
		{
			"sampler":0,
			"source":0
		},
		{
			"sampler":0,
			"source":0
		},
		{
			"sampler":0,
			"source":1
		}
	],
	"images":[
		{
			"mimeType":"image/png",
			"name":"Fingerprints01_3K",
			"uri":"textures/Fingerprints01_3K.png"
		},
		{
			"mimeType":"image/png",
			"name":"Fingerprints01_3K",
			"uri":"textures/Fingerprints01_3K-1.png"
		}
	],
	"accessors":[
		{
			"bufferView":0,
			"componentType":5126,
			"count":1602,
			"max":[
				1.9020636081695557,
				1.7563477754592896,
				1.7066824436187744
			],
			"min":[
				-1.9020636081695557,
				-1.7066456079483032,
				-1.920072317123413
			],
			"type":"VEC3"
		},
		{
			"bufferView":1,
			"componentType":5126,
			"count":1602,
			"type":"VEC3"
		},
		{
			"bufferView":2,
			"componentType":5126,
			"count":1602,
			"type":"VEC2"
		},
		{
			"bufferView":3,
			"componentType":5123,
			"count":9216,
			"type":"SCALAR"
		},
		{
			"bufferView":4,
			"componentType":5126,
			"count":898,
			"max":[
				1.3370087146759033,
				1.2162806987762451,
				1.2669228315353394
			],
			"min":[
				-1.3377728462219238,
				0.09126484394073486,
				0.16049045324325562
			],
			"type":"VEC3"
		},
		{
			"bufferView":5,
			"componentType":5126,
			"count":898,
			"type":"VEC3"
		},
		{
			"bufferView":6,
			"componentType":5126,
			"count":898,
			"type":"VEC2"
		},
		{
			"bufferView":7,
			"componentType":5123,
			"count":4800,
			"type":"SCALAR"
		},
		{
			"bufferView":8,
			"componentType":5126,
			"count":194,
			"max":[
				1.2029433250427246,
				0.9662858247756958,
				1.2837848663330078
			],
			"min":[
				-0.9162143468856812,
				0.34125998616218567,
				1.0600429773330688
			],
			"type":"VEC3"
		},
		{
			"bufferView":9,
			"componentType":5126,
			"count":194,
			"type":"VEC3"
		},
		{
			"bufferView":10,
			"componentType":5126,
			"count":194,
			"type":"VEC2"
		},
		{
			"bufferView":11,
			"componentType":5123,
			"count":960,
			"type":"SCALAR"
		},
		{
			"bufferView":12,
			"componentType":5126,
			"count":2658,
			"max":[
				1.4249207973480225,
				1.3197906017303467,
				1.2874900102615356
			],
			"min":[
				0.11658161878585815,
				0.5037674307823181,
				0.11149902641773224
			],
			"type":"VEC3"
		},
		{
			"bufferView":13,
			"componentType":5126,
			"count":2658,
			"type":"VEC3"
		},
		{
			"bufferView":14,
			"componentType":5126,
			"count":2658,
			"type":"VEC2"
		},
		{
			"bufferView":15,
			"componentType":5123,
			"count":15360,
			"type":"SCALAR"
		},
		{
			"bufferView":16,
			"componentType":5126,
			"count":2658,
			"max":[
				1.3849036693572998,
				0.9307097792625427,
				1.3112601041793823
			],
			"min":[
				0.18680119514465332,
				0.16849835216999054,
				0.25131887197494507
			],
			"type":"VEC3"
		},
		{
			"bufferView":17,
			"componentType":5126,
			"count":2658,
			"type":"VEC3"
		},
		{
			"bufferView":18,
			"componentType":5126,
			"count":2658,
			"type":"VEC2"
		},
		{
			"bufferView":19,
			"componentType":5126,
			"count":4900,
			"max":[
				1.7057366371154785,
				-0.22649982571601868,
				2.0413897037506104
			],
			"min":[
				-1.705736517906189,
				-1.301918864250183,
				0.8126396536827087
			],
			"type":"VEC3"
		},
		{
			"bufferView":20,
			"componentType":5126,
			"count":4900,
			"type":"VEC3"
		},
		{
			"bufferView":21,
			"componentType":5126,
			"count":4900,
			"type":"VEC2"
		},
		{
			"bufferView":22,
			"componentType":5123,
			"count":27648,
			"type":"SCALAR"
		}
	],
	"bufferViews":[
		{
			"buffer":0,
			"byteLength":19224,
			"byteOffset":0,
			"target":34962
		},
		{
			"buffer":0,
			"byteLength":19224,
			"byteOffset":19224,
			"target":34962
		},
		{
			"buffer":0,
			"byteLength":12816,
			"byteOffset":38448,
			"target":34962
		},
		{
			"buffer":0,
			"byteLength":18432,
			"byteOffset":51264,
			"target":34963
		},
		{
			"buffer":0,
			"byteLength":10776,
			"byteOffset":69696,
			"target":34962
		},
		{
			"buffer":0,
			"byteLength":10776,
			"byteOffset":80472,
			"target":34962
		},
		{
			"buffer":0,
			"byteLength":7184,
			"byteOffset":91248,
			"target":34962
		},
		{
			"buffer":0,
			"byteLength":9600,
			"byteOffset":98432,
			"target":34963
		},
		{
			"buffer":0,
			"byteLength":2328,
			"byteOffset":108032,
			"target":34962
		},
		{
			"buffer":0,
			"byteLength":2328,
			"byteOffset":110360,
			"target":34962
		},
		{
			"buffer":0,
			"byteLength":1552,
			"byteOffset":112688,
			"target":34962
		},
		{
			"buffer":0,
			"byteLength":1920,
			"byteOffset":114240,
			"target":34963
		},
		{
			"buffer":0,
			"byteLength":31896,
			"byteOffset":116160,
			"target":34962
		},
		{
			"buffer":0,
			"byteLength":31896,
			"byteOffset":148056,
			"target":34962
		},
		{
			"buffer":0,
			"byteLength":21264,
			"byteOffset":179952,
			"target":34962
		},
		{
			"buffer":0,
			"byteLength":30720,
			"byteOffset":201216,
			"target":34963
		},
		{
			"buffer":0,
			"byteLength":31896,
			"byteOffset":231936,
			"target":34962
		},
		{
			"buffer":0,
			"byteLength":31896,
			"byteOffset":263832,
			"target":34962
		},
		{
			"buffer":0,
			"byteLength":21264,
			"byteOffset":295728,
			"target":34962
		},
		{
			"buffer":0,
			"byteLength":58800,
			"byteOffset":316992,
			"target":34962
		},
		{
			"buffer":0,
			"byteLength":58800,
			"byteOffset":375792,
			"target":34962
		},
		{
			"buffer":0,
			"byteLength":39200,
			"byteOffset":434592,
			"target":34962
		},
		{
			"buffer":0,
			"byteLength":55296,
			"byteOffset":473792,
			"target":34963
		}
	],
	"samplers":[
		{
			"magFilter":9729,
			"minFilter":9987
		}
	],
	"buffers":[
		{
			"byteLength":529088,
			"uri":"Pepe.bin"
		}
	]
}
